<svg height="512pt" viewBox="-31 0 512 512.00188" width="512pt" xmlns="http://www.w3.org/2000/svg"><path d="m102.21875 199.09375 38.175781 181c1.707031 8.09375 9.648438 13.292969 17.769531 11.582031 8.105469-1.707031 13.292969-9.664062 11.582032-17.773437l-38.175782-181c-1.707031-8.105469-9.664062-13.292969-17.769531-11.582032-8.105469 1.710938-13.292969 9.667969-11.582031 17.773438zm0 0"/><path d="m285 0h-120c-8.28125 0-15 6.714844-15 15v46h-75c-5.679688 0-10.875 3.210938-13.414062 8.292969l-25.855469 51.707031h-20.730469c-8.28125 0-15 6.714844-15 15s6.71875 15 15 15h17.695312l57.59375 288.933594c1.398438 7.015625 7.558594 12.066406 14.710938 12.066406h186.910156l1.101563 5.515625c1.085937 5.425781 5.066406 9.8125 10.363281 11.414063 5.292969 1.601562 11.039062.164062 14.953125-3.75l10.605469-10.605469 53.035156 53.035156c5.855469 5.855469 15.351562 5.859375 21.210938 0l42.425781-42.425781c2.816406-2.816406 4.394531-6.628906 4.394531-10.609375 0-3.976563-1.578125-7.792969-4.394531-10.605469l-53.03125-53.03125 10.605469-10.609375c3.914062-3.910156 5.351562-9.65625 3.75-14.949219-1.605469-5.296875-5.988282-9.277344-11.414063-10.363281l-18.109375-3.621094 39.902344-200.394531h17.691406c8.285156 0 15-6.714844 15-15s-6.714844-15-15-15h-20.730469l-25.851562-51.707031c-2.542969-5.082031-7.734375-8.292969-13.417969-8.292969h-75v-46c0-8.285156-6.714844-15-15-15zm-105 30h90v31h-90zm233.789062 424.574219-21.214843 21.210937-53.035157-53.03125c-2.8125-2.8125-6.625-4.394531-10.605468-4.394531-3.976563 0-7.792969 1.582031-10.605469 4.394531l-1.394531 1.394532-11.304688-56.519532c8.949219 1.789063 50.859375 10.171875 56.519532 11.304688l-1.394532 1.394531c-5.855468 5.859375-5.855468 15.355469 0 21.210937zm-65.800781-109.066407-29.800781-5.960937 29.597656-140.453125c1.707032-8.105469-3.480468-16.0625-11.585937-17.773438-8.101563-1.707031-16.0625 3.480469-17.769531 11.585938l-29.664063 140.777344c-4.703125-.714844-9.484375.835937-12.863281 4.21875-3.546875 3.542968-5.085938 8.628906-4.101563 13.546875l14.109375 70.550781h-168.605468l-54.019532-271h323.433594zm32.742188-224.507812h-311.460938l15-30h281.460938zm0 0"/><path d="m225 392c8.285156 0 15-6.714844 15-15v-181c0-8.285156-6.714844-15-15-15-8.28125 0-15 6.714844-15 15v181c0 8.285156 6.71875 15 15 15zm0 0"/></svg>